<svg width="16" height="16" viewBox="0 0 16 16" fill="none" xmlns="http://www.w3.org/2000/svg">
<path d="M6.99326 0.00237398C5.69301 0.00113582 4.41829 0.36494 3.31287 1.05275C2.4977 1.56292 1.79523 2.23549 1.2488 3.02898C0.70236 3.82246 0.323552 4.72003 0.135737 5.6663C-0.0520771 6.61256 -0.0449199 7.58746 0.156786 8.53083C0.358491 9.47421 0.750464 10.3661 1.30851 11.1513C1.86655 11.9366 2.57883 12.5987 3.40141 13.0967C4.22398 13.5947 5.1394 13.9181 6.09119 14.0469C7.04297 14.1758 8.01095 14.1073 8.93536 13.8457C9.85978 13.5841 10.721 13.135 11.466 12.526L10.3945 11.4424C9.42921 12.2173 8.22884 12.6366 6.99326 12.6306C5.89908 12.6301 4.8296 12.3038 3.91992 11.6929C3.01025 11.082 2.30122 10.214 1.88239 9.19837C1.46356 8.18278 1.35374 7.06526 1.56681 5.98699C1.77987 4.90872 2.30624 3.91808 3.07944 3.14025C3.85264 2.36242 4.83796 1.8323 5.91092 1.61685C6.98387 1.40141 8.09631 1.51031 9.10768 1.92981C10.1191 2.3493 10.984 3.06057 11.5932 3.97374C12.2024 4.8869 12.5285 5.96099 12.5304 7.0603C12.5331 8.24444 12.152 9.39728 11.4447 10.3445L12.5233 11.4305C13.3396 10.3884 13.8473 9.13652 13.9885 7.81804C14.1297 6.49956 13.8985 5.16779 13.3215 3.97513C12.7445 2.78247 11.845 1.77712 10.7258 1.07412C9.60667 0.371122 8.31314 -0.00111528 6.99326 2.51005e-06V0.00237398Z" fill="#A5B1BD"/>
<path d="M15.785 15.7793C15.6436 15.9207 15.4523 16 15.2528 16C15.0534 16 14.862 15.9207 14.7206 15.7793L11.4731 12.526C11.8588 12.2015 12.2107 11.8384 12.5233 11.4424L15.785 14.7194C15.9228 14.8611 16 15.0513 16 15.2494C16 15.4475 15.9228 15.6377 15.785 15.7793Z" fill="#A5B1BD"/>
<path d="M7.70045 4.03513C7.7011 4.15071 7.67519 4.26489 7.62473 4.36876C7.57427 4.47263 7.50062 4.5634 7.40952 4.63399C7.34071 4.69219 7.25994 4.73438 7.173 4.75756C7.14432 4.77208 7.11284 4.78019 7.08075 4.78132C6.50366 4.93661 5.99366 5.27877 5.62975 5.7548C5.26585 6.23083 5.06836 6.81415 5.06788 7.41438C5.07031 7.96194 5.235 8.49638 5.54094 8.94954C5.54094 8.94954 5.55751 8.9733 5.5646 8.98043C5.69103 9.11724 5.76045 9.29755 5.75856 9.48423C5.75954 9.64983 5.70617 9.81113 5.60673 9.9432C5.50729 10.0753 5.36731 10.1707 5.20844 10.2148C5.04956 10.2589 4.88065 10.2492 4.72783 10.1872C4.57501 10.1251 4.4468 10.0142 4.36303 9.87158C4.27519 9.75071 4.19615 9.62365 4.1265 9.49136C3.76945 8.85806 3.58277 8.14222 3.58486 7.41438C3.58448 6.58398 3.82709 5.7718 4.28255 5.07886C4.738 4.38592 5.38618 3.8428 6.14645 3.51707C6.35918 3.42868 6.57819 3.35639 6.80164 3.30082C6.85228 3.29059 6.90375 3.28502 6.95539 3.28418C7.05352 3.28387 7.15073 3.30309 7.24142 3.34075C7.33212 3.37841 7.41449 3.43375 7.48377 3.50358C7.55305 3.5734 7.60786 3.65633 7.64506 3.74756C7.68225 3.8388 7.70108 3.93654 7.70045 4.03513Z" fill="#A5B1BD"/>
</svg>
